<svg width="520" height="520" viewBox="0 0 520 520" fill="none" xmlns="http://www.w3.org/2000/svg">
<rect width="520" height="520" rx="30" fill="#FE4D00"/>
<path d="M102.855 255.957C102.878 238.434 109.849 221.635 122.24 209.243C134.653 196.831 151.487 189.857 169.041 189.857C186.595 189.858 203.429 196.831 215.842 209.243C223.172 216.573 228.605 225.446 231.825 235.098C235.181 215.997 243.086 197.949 254.897 182.507C253.013 180.307 251.038 178.173 248.975 176.11C227.775 154.91 199.022 143 169.041 143C139.06 143 110.307 154.91 89.1072 176.11C67.9279 197.289 56.0205 226.007 55.9976 255.957L102.855 255.957Z" fill="#FFCFB9"/>
<path d="M265.187 337.496C267.071 339.695 269.045 341.828 271.107 343.89C292.307 365.09 321.06 377 351.041 377C381.022 377 409.775 365.09 430.975 343.89C452.154 322.711 464.061 293.993 464.084 264.043H417.227C417.204 281.566 410.233 298.365 397.842 310.757C385.429 323.169 368.595 330.142 351.041 330.142C333.487 330.142 316.653 323.169 304.24 310.757C296.912 303.429 291.48 294.56 288.26 284.911C284.903 304.009 276.997 322.056 265.187 337.496Z" fill="#FFCFB9"/>
<path d="M234.821 271.304C233.162 286.155 226.512 300.089 215.844 310.757C203.432 323.169 186.597 330.142 169.043 330.143C151.49 330.143 134.655 323.169 122.243 310.757C109.831 298.345 102.858 281.51 102.858 263.957L56 263.957C56 293.938 67.9099 322.691 89.1097 343.89C110.309 365.09 139.062 377 169.043 377C199.024 377 227.778 365.09 248.977 343.89C266.547 326.321 277.736 303.563 281.053 279.217L285.478 247C287.438 232.787 293.982 219.504 304.243 209.243C316.655 196.831 333.49 189.858 351.043 189.858C368.597 189.858 385.432 196.831 397.844 209.243C410.256 221.655 417.229 238.49 417.229 256.043H464.087C464.087 226.062 452.177 197.309 430.977 176.11C409.777 154.91 381.024 143 351.043 143C321.062 143 292.309 154.91 271.11 176.11C252.997 194.222 241.666 217.849 238.75 243.043L234.821 271.304Z" fill="white"/>
</svg> 